<svg width="171" height="76" viewBox="0 0 171 76" fill="none" xmlns="http://www.w3.org/2000/svg">
<g clip-path="url(#clip0_87_1041)">
<path d="M3.54403 47.8808V15.5156C3.83124 11.6327 2.55804 7.79429 0 4.8313L13.29 0.70752V47.9433C13.0252 51.6739 13.6316 55.4147 15.0622 58.8775V58.8775H1.77201C3.25644 55.4078 3.86456 51.634 3.54403 47.8808V47.8808Z" fill="#112735"/>
<path d="M31.8966 60.6893L20.8848 32.8227C19.7458 29.2415 17.9902 25.8808 15.6953 22.8882V22.8882H31.1372C30.3566 24.5416 29.9521 26.3437 29.9521 28.1678C29.9521 29.992 30.3566 31.7941 31.1372 33.4475L36.7065 47.8806L42.4656 33.3225C43.2081 31.6477 43.5158 29.8165 43.3611 27.9946C43.2064 26.1727 42.5941 24.4176 41.5795 22.8882V22.8882H50.5662C47.7573 25.8078 45.6012 29.2776 44.2376 33.0726L33.1624 60.5018C28.0362 72.4982 24.0492 74.5601 17.9737 75.7472V67.3748C20.7167 67.939 23.5717 67.5887 26.0914 66.3788C28.611 65.169 30.6527 63.1679 31.8966 60.6893V60.6893Z" fill="#112735"/>
<path d="M85.6898 60.0021C84.3763 60.1633 83.0428 60.0209 81.7945 59.5862C80.5462 59.1516 79.4172 58.4365 78.4967 57.4974C77.5762 56.5583 76.8893 55.4209 76.4902 54.1749C76.0911 52.9289 75.9907 51.6084 76.1969 50.3176V24.2629H64.2358V47.8808C63.9752 51.6088 64.649 55.3427 66.1977 58.7525V58.7525H52.4644C54.117 55.3742 54.8167 51.6185 54.4896 47.8808V24.2629H49.7432V22.7633H54.4896V19.5143C54.2621 17.1595 54.5314 14.7837 55.2803 12.5367C56.0293 10.2897 57.2418 8.22033 58.8414 6.45913C60.4409 4.69794 62.3927 3.28312 64.5738 2.30394C66.7549 1.32476 69.1179 0.802459 71.5137 0.769988C73.6567 0.731165 75.7925 1.02637 77.8424 1.64472L78.7285 10.5795H78.2854C76.0704 7.39299 72.9693 2.01959 69.7417 2.01959C66.5141 2.01959 64.4257 6.7057 64.4257 15.0782V22.8258H72.906L85.5633 14.5158H86.3861V22.8258H95.8157V24.3254H86.3861V50.1301C86.3861 54.2539 88.4112 55.8784 91.8286 55.8784C93.4697 55.9289 95.0856 55.47 96.4486 54.5663V54.5663C95.2566 56.2862 93.648 57.6844 91.7689 58.6338C89.8899 59.5832 87.8 60.0536 85.6898 60.0021Z" fill="#112735"/>
<path d="M111.827 60.0021C109.386 60.0278 106.967 59.5501 104.724 58.5996C102.482 57.6491 100.465 56.2467 98.8027 54.4822C97.1406 52.7178 95.8699 50.6301 95.0721 48.3528C94.2744 46.0756 93.9672 43.659 94.17 41.2577C94.0162 38.7802 94.3624 36.2973 95.1884 33.9529C96.0144 31.6086 97.3038 29.4495 98.9818 27.6011C100.66 25.7527 102.693 24.2517 104.963 23.1853C107.233 22.1188 109.695 21.5082 112.206 21.3887C114.228 21.3719 116.232 21.7536 118.102 22.5115C119.972 23.2693 121.67 24.3881 123.097 25.8021C124.523 27.2162 125.649 28.8971 126.409 30.7464C127.169 32.5957 127.547 34.5761 127.522 36.5716H103.916C103.916 47.8182 109.232 52.2544 116.573 52.2544C118.507 52.3481 120.437 52.0026 122.215 51.2444C123.992 50.4861 125.569 49.3354 126.826 47.8807H127.269C126.487 51.34 124.528 54.4302 121.718 56.636C118.908 58.8418 115.417 60.0299 111.827 60.0021V60.0021ZM103.916 35.5094H117.902V33.76C117.902 26.5121 115.751 23.3256 111.574 23.3256C106.891 23.0132 104.296 28.6365 103.916 35.5094Z" fill="#112735"/>
<path d="M144.926 60.0022C136.129 60.0022 130.497 52.6918 130.497 42.4449C130.273 39.7523 130.627 37.0435 131.535 34.4947C132.442 31.946 133.883 29.6144 135.763 27.6518C137.644 25.6891 139.922 24.1394 142.449 23.1034C144.976 22.0674 147.696 21.5683 150.432 21.6387C152.883 21.6214 155.32 22.0014 157.646 22.7634V15.5781C157.792 13.6405 157.548 11.6936 156.929 9.84926C156.31 8.00497 155.328 6.29964 154.039 4.8313V4.8313L167.329 0.70752V43.1322C167.329 52.5669 168.532 54.5663 171 57.0031L157.899 59.8772V52.4419C156.636 54.746 154.761 56.6671 152.475 57.999C150.189 59.3308 147.58 60.0234 144.926 60.0022V60.0022ZM157.583 50.9424V31.1359C156.444 24.8877 153.47 23.0133 150.115 23.0133C144.293 23.0133 140.496 29.2614 140.496 39.6958C140.496 49.068 143.66 54.4413 149.736 54.4413C151.251 54.4589 152.75 54.1361 154.121 53.4975C155.491 52.8589 156.697 51.9211 157.646 50.7549L157.583 50.9424Z" fill="#112735"/>
</g>
<defs>
<clipPath id="clip0_87_1041">
<rect width="171" height="75.1648" fill="white" transform="translate(0 0.58252)"/>
</clipPath>
</defs>
</svg>
